<svg width="45" height="28" viewBox="0 0 45 28" fill="none" xmlns="http://www.w3.org/2000/svg">
<path d="M40.5 0.5H14.4323C13.8413 0.499882 13.256 0.616256 12.71 0.842469C12.1639 1.06868 11.6678 1.4003 11.25 1.81836L0.658829 12.4088C-0.220078 13.2877 -0.220078 14.7123 0.658829 15.5905L11.25 26.1816C12.0938 27.0254 13.2384 27.5 14.4316 27.5H40.5C42.9856 27.5 45 25.4855 45 23V5C45 2.51445 42.9856 0.5 40.5 0.5ZM34.5452 18.3636C34.9847 18.803 34.9847 19.5153 34.5452 19.9548L32.9548 21.5452C32.5153 21.9847 31.8031 21.9847 31.3636 21.5452L27 17.1816L22.6364 21.5452C22.197 21.9847 21.4847 21.9847 21.0452 21.5452L19.4548 19.9548C19.0153 19.5153 19.0153 18.803 19.4548 18.3636L23.8184 14L19.4548 9.63641C19.0153 9.19695 19.0153 8.48469 19.4548 8.04523L21.0452 6.45477C21.4847 6.01531 22.197 6.01531 22.6364 6.45477L27 10.8184L31.3636 6.45477C31.8031 6.01531 32.5153 6.01531 32.9548 6.45477L34.5452 8.04523C34.9847 8.48469 34.9847 9.19695 34.5452 9.63641L30.1816 14L34.5452 18.3636Z" fill="#6A6A6A"/>
</svg>
